<?xml version="1.0" encoding="UTF-8" standalone="no"?>
<!DOCTYPE svg PUBLIC "-//W3C//DTD SVG 1.1//EN" "http://www.w3.org/Graphics/SVG/1.1/DTD/svg11.dtd">
<svg width="4096.00" height="4096.00" viewBox="0.00 0.00 4096.00 4096.00" xmlns="http://www.w3.org/2000/svg" xmlns:xlink="http://www.w3.org/1999/xlink">
<g stroke-linecap="round" id="Layer_1_Copy_2">
<path d="M989.81,2128.42 C1001.34,2126.59 1039.01,2120.57 1048.62,2119.17 C1057.93,2118.02 1075.71,2116.48 1084.19,2116.08 C1094.64,2115.81 1109.65,2116.61 1117.57,2117.72 C1125.60,2118.87 1140.32,2122.54 1146.95,2125.05 C1153.69,2127.62 1166.59,2134.48 1172.75,2138.77 C1179.36,2143.40 1189.68,2152.85 1194.44,2158.09 C1199.32,2163.50 1208.60,2175.75 1212.98,2182.57 C1217.34,2189.38 1225.18,2203.63 1228.56,2210.89 C1231.93,2218.15 1237.56,2233.02 1239.72,2240.74 C1241.80,2248.46 1244.98,2264.29 1246.07,2272.40 C1247.18,2280.72 1248.30,2297.00 1248.19,2304.72 C1248.07,2312.41 1246.50,2326.52 1245.00,2333.45 C1243.45,2340.47 1237.48,2355.67 1233.62,2362.32 C1229.85,2368.75 1219.99,2380.71 1214.94,2386.56 C1209.76,2392.38 1196.63,2406.46 1193.07,2409.91 C1174.94,2427.20 1141.23,2457.29 1138.62,2459.64" fill="none" stroke="rgb(255, 0, 0)" stroke-width="30.00" stroke-opacity="1.00" stroke-linejoin="miter"/>
<path d="M1138.62,2459.64 C1138.62,2459.64 1138.62,2459.64 1138.62,2459.64 Z" fill="none" stroke="rgb(255, 0, 0)" stroke-width="30.00" stroke-opacity="1.00" stroke-linejoin="miter"/>
<path d="M1759.19,2125.42 C1747.66,2123.59 1709.99,2117.57 1700.38,2116.17 C1691.07,2115.02 1673.29,2113.48 1664.81,2113.08 C1654.36,2112.81 1639.35,2113.61 1631.43,2114.72 C1623.40,2115.87 1608.68,2119.54 1602.05,2122.05 C1595.31,2124.62 1582.41,2131.48 1576.25,2135.77 C1569.64,2140.40 1559.32,2149.85 1554.56,2155.09 C1549.68,2160.50 1540.40,2172.75 1536.02,2179.57 C1531.66,2186.38 1523.82,2200.63 1520.44,2207.89 C1517.07,2215.15 1511.44,2230.02 1509.28,2237.74 C1507.20,2245.46 1504.02,2261.29 1502.93,2269.40 C1501.82,2277.72 1500.70,2294.00 1500.81,2301.72 C1500.93,2309.41 1502.50,2323.52 1504.00,2330.45 C1505.55,2337.47 1511.52,2352.67 1515.38,2359.32 C1519.15,2365.75 1529.01,2377.71 1534.06,2383.56 C1539.24,2389.38 1552.37,2403.46 1555.93,2406.91 C1574.06,2424.20 1607.77,2454.29 1610.38,2456.64" fill="none" stroke="rgb(255, 0, 0)" stroke-width="30.00" stroke-opacity="1.00" stroke-linejoin="miter"/>
<path d="M1610.38,2456.64 C1610.38,2456.64 1610.38,2456.64 1610.38,2456.64 Z" fill="none" stroke="rgb(255, 0, 0)" stroke-width="30.00" stroke-opacity="1.00" stroke-linejoin="miter"/>
<path d="M1043.57,2158.18 L1150.14,2388.60" fill="none" stroke="rgb(255, 0, 0)" stroke-width="100.00" stroke-opacity="1.00" stroke-linejoin="round"/>
<path d="M1119.41,2157.22 L1197.18,2338.67" fill="none" stroke="rgb(255, 0, 0)" stroke-width="100.00" stroke-opacity="1.00" stroke-linejoin="round"/>
<path d="M1163.58,2179.31 L1199.10,2272.43" fill="none" stroke="rgb(255, 0, 0)" stroke-width="100.00" stroke-opacity="1.00" stroke-linejoin="round"/>
<path d="M1705.04,2163.94 L1604.24,2383.80" fill="none" stroke="rgb(255, 0, 0)" stroke-width="100.00" stroke-opacity="1.00" stroke-linejoin="round"/>
<path d="M1633.04,2154.34 L1556.24,2336.75" fill="none" stroke="rgb(255, 0, 0)" stroke-width="100.00" stroke-opacity="1.00" stroke-linejoin="round"/>
<path d="M1581.20,2187.95 L1545.67,2280.11" fill="none" stroke="rgb(255, 0, 0)" stroke-width="100.00" stroke-opacity="1.00" stroke-linejoin="round"/>
<path d="M1168.52,1710.73 L1168.52,1710.73" fill="none" stroke="rgb(255, 0, 0)" stroke-width="100.00" stroke-opacity="1.00" stroke-linejoin="round"/>
<path d="M1599.91,1717.65 L1599.91,1718.64" fill="none" stroke="rgb(255, 0, 0)" stroke-width="100.00" stroke-opacity="1.00" stroke-linejoin="round"/>
<path d="M1264.49,1946.21 Q1393.12,2037.24 1502.95,1945.22" fill="none" stroke="rgb(255, 0, 0)" stroke-width="30.00" stroke-opacity="1.00" stroke-linejoin="round"/>
<path d="M1955.00,1695.00 Q1751.00,2148.00 1547.00,2601.00 Q1386.31,2809.10 1203.00,2602.00 Q999.00,2149.00 795.00,1696.00 Q1391.14,1422.80 1955.00,1695.00" fill="none" stroke="rgb(255, 0, 0)" stroke-width="30.00" stroke-opacity="1.00" stroke-linejoin="round"/>
<path d="M797.48,1698.85 C781.55,1677.95 753.98,1641.83 742.83,1626.59 C737.62,1619.13 727.94,1604.56 723.47,1597.44 C719.25,1590.43 712.13,1578.00 708.10,1568.41 C704.88,1560.70 699.99,1545.86 698.32,1538.71 C696.71,1531.75 694.79,1516.95 695.61,1511.18 C696.11,1507.84 698.18,1501.23 699.76,1497.96 C701.36,1494.69 705.65,1488.23 708.33,1485.04 C711.04,1481.85 717.48,1475.58 721.32,1472.42 C726.47,1468.18 749.28,1456.02 762.71,1449.64 C774.77,1444.28 801.53,1433.40 816.22,1427.88 C831.78,1422.31 865.86,1411.03 883.50,1405.36 C901.22,1399.97 936.22,1389.57 953.50,1384.57 C970.33,1379.97 1003.56,1371.15 1019.95,1366.93 C1035.90,1363.11 1061.96,1356.98 1085.37,1352.34 C1102.08,1349.29 1135.01,1343.67 1151.23,1341.08 C1166.97,1338.96 1197.96,1335.17 1213.22,1333.50 C1228.14,1332.25 1258.23,1330.06 1273.40,1329.11 C1288.86,1328.43 1320.08,1327.36 1335.83,1326.97 C1351.89,1326.85 1384.21,1326.83 1399.36,1327.24 C1414.69,1327.82 1445.61,1329.23 1461.21,1330.06 C1477.05,1331.12 1509.01,1333.47 1525.11,1334.77 C1541.48,1336.30 1574.26,1339.61 1590.68,1341.39 C1606.91,1343.42 1639.16,1347.73 1655.18,1350.02 C1671.01,1352.56 1702.47,1357.89 1718.10,1360.68 C1737.33,1364.38 1768.42,1371.62 1786.05,1375.84 C1803.47,1380.42 1838.07,1389.94 1855.27,1394.88 C1872.24,1400.17 1905.96,1411.03 1921.98,1416.62 C1937.12,1422.21 1964.76,1433.40 1977.25,1439.00 C1989.09,1444.59 2013.22,1457.75 2018.44,1461.39 C2022.64,1464.33 2031.00,1471.06 2034.49,1474.31 C2037.95,1477.55 2043.84,1484.06 2046.26,1487.33 C2048.65,1490.60 2052.40,1497.16 2053.75,1500.46 C2055.07,1503.76 2056.65,1510.23 2056.96,1513.70 C2057.50,1520.09 2056.54,1534.31 2055.08,1541.62 C2053.59,1548.94 2048.14,1565.73 2045.16,1572.21 C2043.86,1574.99 2033.76,1592.79 2029.34,1599.89 C2019.85,1614.35 2001.95,1637.92 1984.77,1659.26 C1975.68,1670.61 1961.84,1687.93 1957.10,1693.91" fill="none" stroke="rgb(255, 0, 0)" stroke-width="30.00" stroke-opacity="1.00" stroke-linejoin="miter"/>
<path d="M750.98,1519.77 L1087.39,1400.05" fill="none" stroke="rgb(255, 0, 0)" stroke-width="100.00" stroke-opacity="1.00" stroke-linejoin="round"/>
<path d="M1132.90,1400.05 L1456.44,1378.28" fill="none" stroke="rgb(255, 0, 0)" stroke-width="100.00" stroke-opacity="1.00" stroke-linejoin="round"/>
<path d="M1499.98,1387.18 L1768.11,1425.77" fill="none" stroke="rgb(255, 0, 0)" stroke-width="100.00" stroke-opacity="1.00" stroke-linejoin="round"/>
<path d="M1801.76,1435.67 L1998.65,1512.84" fill="none" stroke="rgb(255, 0, 0)" stroke-width="100.00" stroke-opacity="1.00" stroke-linejoin="round"/>
<path d="M2016.46,1547.47 L1941.27,1633.55" fill="none" stroke="rgb(255, 0, 0)" stroke-width="100.00" stroke-opacity="1.00" stroke-linejoin="round"/>
<path d="M759.88,1539.56 L811.33,1636.52" fill="none" stroke="rgb(255, 0, 0)" stroke-width="100.00" stroke-opacity="1.00" stroke-linejoin="round"/>
<path d="M843.99,1615.74 L1206.12,1514.82" fill="none" stroke="rgb(255, 0, 0)" stroke-width="100.00" stroke-opacity="1.00" stroke-linejoin="round"/>
<path d="M1222.94,1515.81 L1493.05,1509.87" fill="none" stroke="rgb(255, 0, 0)" stroke-width="100.00" stroke-opacity="1.00" stroke-linejoin="round"/>
<path d="M1517.79,1513.83 L1877.94,1609.81" fill="none" stroke="rgb(255, 0, 0)" stroke-width="100.00" stroke-opacity="1.00" stroke-linejoin="round"/>
<path d="M1944.23,1565.28 L1379.27,1439.62" fill="none" stroke="rgb(255, 0, 0)" stroke-width="100.00" stroke-opacity="1.00" stroke-linejoin="round"/>
<path d="M1362.45,1444.57 L840.03,1538.57" fill="none" stroke="rgb(255, 0, 0)" stroke-width="100.00" stroke-opacity="1.00" stroke-linejoin="round"/>
<path d="M709.42,2033.28 L709.42,2033.28" fill="none" stroke="rgb(255, 0, 0)" stroke-width="150.00" stroke-opacity="1.00" stroke-linejoin="round"/>
<path d="M718.33,2031.30 L1027.03,2178.73" fill="none" stroke="rgb(255, 0, 0)" stroke-width="50.00" stroke-opacity="1.00" stroke-linejoin="round"/>
<path d="M1953.76,1939.42 L3262.07,1940.44" fill="none" stroke="rgb(255, 0, 0)" stroke-width="30.00" stroke-opacity="1.00" stroke-linejoin="round"/>
<path d="M2383.03,1457.89 Q2025.48,1524.49 1950.69,1938.39" fill="none" stroke="rgb(255, 0, 0)" stroke-width="30.00" stroke-opacity="1.00" stroke-linejoin="round"/>
<path d="M2387.13,1455.84 Q2606.72,1454.38 2826.31,1452.92 Q2828.14,1452.90 2829.97,1452.89 Q3187.52,1519.49 3262.31,1933.39" fill="none" stroke="rgb(255, 0, 0)" stroke-width="30.00" stroke-opacity="1.00" stroke-linejoin="round"/>
<path d="M2042.89,2663.75 L3168.84,2664.78" fill="none" stroke="rgb(255, 0, 0)" stroke-width="30.00" stroke-opacity="1.00" stroke-linejoin="round"/>
<path d="M1990.64,2460.90 C1985.98,2463.62 1970.62,2472.52 1967.11,2475.43 C1963.66,2478.32 1957.44,2485.45 1954.78,2489.58 C1951.62,2494.57 1945.89,2509.08 1943.88,2517.21 C1941.77,2525.87 1940.16,2542.14 1940.64,2550.21 C1941.12,2557.86 1944.36,2572.44 1946.99,2579.36 C1949.64,2586.28 1957.06,2599.78 1961.63,2606.07 C1966.22,2612.33 1977.20,2624.00 1983.83,2629.45 C1990.57,2634.96 2004.73,2644.22 2014.45,2649.49 C2026.71,2656.11 2039.90,2663.24 2040.84,2663.75" fill="none" stroke="rgb(255, 0, 0)" stroke-width="30.00" stroke-opacity="1.00" stroke-linejoin="miter"/>
<path d="M3230.36,2457.90 C3235.02,2460.62 3250.38,2469.52 3253.89,2472.43 C3257.34,2475.32 3263.56,2482.45 3266.22,2486.58 C3269.38,2491.57 3275.11,2506.08 3277.12,2514.21 C3279.23,2522.87 3280.84,2539.14 3280.36,2547.21 C3279.88,2554.86 3276.64,2569.44 3274.01,2576.36 C3271.36,2583.28 3263.94,2596.78 3259.37,2603.07 C3254.78,2609.33 3243.80,2621.00 3237.17,2626.45 C3230.43,2631.96 3216.27,2641.22 3206.55,2646.49 C3194.29,2653.11 3181.10,2660.24 3180.16,2660.75" fill="none" stroke="rgb(255, 0, 0)" stroke-width="30.00" stroke-opacity="1.00" stroke-linejoin="miter"/>
<path d="M1991.00,2459.00 L3223.00,2459.00" fill="none" stroke="rgb(255, 0, 0)" stroke-width="30.00" stroke-opacity="1.00" stroke-linejoin="round"/>
<path d="M2053.14,2007.03 L3167.82,2008.06" fill="none" stroke="rgb(255, 0, 0)" stroke-width="120.00" stroke-opacity="1.00" stroke-linejoin="round"/>
<path d="M2055.19,2125.88 L3167.82,2121.78" fill="none" stroke="rgb(255, 0, 0)" stroke-width="120.00" stroke-opacity="1.00" stroke-linejoin="round"/>
<path d="M2029.57,2238.58 L3193.43,2237.55" fill="none" stroke="rgb(255, 0, 0)" stroke-width="120.00" stroke-opacity="1.00" stroke-linejoin="round"/>
<path d="M2014.21,2371.76 L3205.72,2372.79" fill="none" stroke="rgb(255, 0, 0)" stroke-width="165.00" stroke-opacity="1.00" stroke-linejoin="round"/>
<path d="M2387.72,1656.81 L2387.72,1656.81" fill="none" stroke="rgb(255, 0, 0)" stroke-width="100.00" stroke-opacity="1.00" stroke-linejoin="round"/>
<path d="M2839.00,1653.00 L2836.00,1653.00" fill="none" stroke="rgb(255, 0, 0)" stroke-width="100.00" stroke-opacity="1.00" stroke-linejoin="round"/>
<path d="M2521.36,1812.27 Q2624.99,1876.36 2713.63,1815.00" fill="none" stroke="rgb(255, 0, 0)" stroke-width="30.00" stroke-opacity="1.00" stroke-linejoin="round"/>
<path d="M1854.54,2232.27 L1854.54,2232.27" fill="none" stroke="rgb(255, 0, 0)" stroke-width="150.00" stroke-opacity="1.00" stroke-linejoin="round"/>
<path d="M3447.27,1962.27 L3447.27,1962.27" fill="none" stroke="rgb(255, 0, 0)" stroke-width="150.00" stroke-opacity="1.00" stroke-linejoin="round"/>
<path d="M3189.54,2124.54 L3419.99,1981.36" fill="none" stroke="rgb(255, 0, 0)" stroke-width="50.00" stroke-opacity="1.00" stroke-linejoin="round"/>
<path d="M1879.09,2229.54 L2034.54,2130.00" fill="none" stroke="rgb(255, 0, 0)" stroke-width="50.00" stroke-opacity="1.00" stroke-linejoin="round"/>
<path d="M1831.36,2224.09 L1745.98,2159.14" fill="none" stroke="rgb(255, 0, 0)" stroke-width="50.00" stroke-opacity="1.00" stroke-linejoin="round"/>
</g>
</svg>
